<svg xmlns="http://www.w3.org/2000/svg" viewBox="0 0 400 72" preserveAspectRatio="none" width="400" height="72">
  <rect width="400" height="72" fill="#f4f1ea"/>
  <g fill="#c8962a" opacity="0.85">
    <rect x="2"   y="30" width="3" height="12"/>
    <rect x="8"   y="22" width="3" height="28"/>
    <rect x="14"  y="14" width="3" height="44"/>
    <rect x="20"  y="26" width="3" height="20"/>
    <rect x="26"  y="18" width="3" height="36"/>
    <rect x="32"  y="10" width="3" height="52"/>
    <rect x="38"  y="24" width="3" height="24"/>
    <rect x="44"  y="16" width="3" height="40"/>
    <rect x="50"  y="28" width="3" height="16"/>
    <rect x="56"  y="20" width="3" height="32"/>
    <rect x="62"  y="12" width="3" height="48"/>
    <rect x="68"  y="26" width="3" height="20"/>
    <rect x="74"  y="18" width="3" height="36"/>
    <rect x="80"  y="22" width="3" height="28"/>
    <rect x="86"  y="14" width="3" height="44"/>
    <rect x="92"  y="28" width="3" height="16"/>
    <rect x="98"  y="20" width="3" height="32"/>
    <rect x="104" y="10" width="3" height="52"/>
    <rect x="110" y="24" width="3" height="24"/>
    <rect x="116" y="16" width="3" height="40"/>
    <rect x="122" y="30" width="3" height="12"/>
    <rect x="128" y="22" width="3" height="28"/>
    <rect x="134" y="14" width="3" height="44"/>
    <rect x="140" y="26" width="3" height="20"/>
    <rect x="146" y="18" width="3" height="36"/>
    <rect x="152" y="10" width="3" height="52"/>
    <rect x="158" y="24" width="3" height="24"/>
    <rect x="164" y="16" width="3" height="40"/>
    <rect x="170" y="28" width="3" height="16"/>
    <rect x="176" y="20" width="3" height="32"/>
    <rect x="182" y="12" width="3" height="48"/>
    <rect x="188" y="26" width="3" height="20"/>
    <rect x="194" y="18" width="3" height="36"/>
    <rect x="200" y="22" width="3" height="28"/>
    <rect x="206" y="14" width="3" height="44"/>
    <rect x="212" y="28" width="3" height="16"/>
    <rect x="218" y="20" width="3" height="32"/>
    <rect x="224" y="10" width="3" height="52"/>
    <rect x="230" y="24" width="3" height="24"/>
    <rect x="236" y="16" width="3" height="40"/>
    <rect x="242" y="30" width="3" height="12"/>
    <rect x="248" y="22" width="3" height="28"/>
    <rect x="254" y="14" width="3" height="44"/>
    <rect x="260" y="26" width="3" height="20"/>
    <rect x="266" y="18" width="3" height="36"/>
    <rect x="272" y="10" width="3" height="52"/>
    <rect x="278" y="24" width="3" height="24"/>
    <rect x="284" y="16" width="3" height="40"/>
    <rect x="290" y="28" width="3" height="16"/>
    <rect x="296" y="20" width="3" height="32"/>
    <rect x="302" y="12" width="3" height="48"/>
    <rect x="308" y="26" width="3" height="20"/>
    <rect x="314" y="18" width="3" height="36"/>
    <rect x="320" y="22" width="3" height="28"/>
    <rect x="326" y="14" width="3" height="44"/>
    <rect x="332" y="28" width="3" height="16"/>
    <rect x="338" y="20" width="3" height="32"/>
    <rect x="344" y="10" width="3" height="52"/>
    <rect x="350" y="24" width="3" height="24"/>
    <rect x="356" y="16" width="3" height="40"/>
    <rect x="362" y="30" width="3" height="12"/>
    <rect x="368" y="22" width="3" height="28"/>
    <rect x="374" y="14" width="3" height="44"/>
    <rect x="380" y="26" width="3" height="20"/>
    <rect x="386" y="18" width="3" height="36"/>
    <rect x="392" y="22" width="3" height="28"/>
  </g>
</svg>
